<svg width="19" height="22" viewBox="0 0 19 22" fill="none" xmlns="http://www.w3.org/2000/svg">
<path d="M10.3225 18.3853C9.36925 19.279 8.10583 19.7668 6.79938 19.7458C5.49293 19.7247 4.24588 19.1964 3.32196 18.2725C2.39804 17.3485 1.86969 16.1015 1.84863 14.795C1.82757 13.4886 2.31547 12.2252 3.20913 11.272L11.2391 3.25112C11.7165 2.77752 12.3232 2.45562 12.983 2.32591C13.6429 2.1962 14.3263 2.26447 14.9474 2.52213C15.5685 2.77978 16.0996 3.21533 16.4739 3.774C16.8481 4.33267 17.0488 4.98952 17.0508 5.66196C17.0503 6.10913 16.9609 6.55173 16.7878 6.96404C16.6147 7.37634 16.3613 7.75012 16.0425 8.06362L8.40663 15.6903C8.1679 15.8806 7.86765 15.9766 7.5628 15.9603C7.25795 15.9439 6.9697 15.8163 6.7527 15.6015C6.5357 15.3868 6.40504 15.0999 6.38549 14.7952C6.36594 14.4906 6.45886 14.1893 6.64663 13.9486L14.2916 6.30362L12.99 5.01112L5.34497 12.6561C4.79325 13.2387 4.49065 14.0136 4.50156 14.8159C4.51248 15.6182 4.83604 16.3845 5.40339 16.9519C5.97075 17.5192 6.73711 17.8428 7.53939 17.8537C8.34168 17.8646 9.11656 17.562 9.69913 17.0103L17.3533 9.36529C18.3379 8.38189 18.8916 7.04763 18.8924 5.65603C18.8933 4.26443 18.3413 2.92949 17.3579 1.94487C16.3745 0.960257 15.0402 0.406622 13.6486 0.405763C12.257 0.404903 10.9221 0.956889 9.93747 1.94029L1.90747 9.97946C0.665642 11.276 -0.0189454 13.0074 0.000399079 14.8026C0.0197435 16.5978 0.741481 18.314 2.01096 19.5835C3.28043 20.8529 4.99665 21.5747 6.79185 21.594C8.58706 21.6134 10.3184 20.9288 11.615 19.687L18.875 12.4178L17.5825 11.107L10.3225 18.3853Z" fill="#6F848F"/>
</svg>
