<svg width="28" height="28" viewBox="0 0 28 28" fill="none" xmlns="http://www.w3.org/2000/svg">
<path fill-rule="evenodd" clip-rule="evenodd" d="M13.3198 2.19514C9.58552 -0.281565 5.0185 -0.686076 0.975106 1.10174C0.386176 1.36214 0 1.99265 0 2.6938V19.8773C0 21.0284 1.05168 21.8154 2.01849 21.3879C5.32961 19.9239 9.06953 20.2552 12.1275 22.2833L13.6412 23.2873C13.7567 23.3638 13.8801 23.3973 14 23.395C14.1199 23.3973 14.2434 23.3638 14.3588 23.2873L15.8725 22.2833C18.9305 20.2552 22.6704 19.9239 25.9815 21.3879C26.9483 21.8154 28 21.0284 28 19.8773V2.6938C28 1.99265 27.6138 1.36214 27.0249 1.10174C22.9815 -0.686076 18.4145 -0.281565 14.6802 2.19514L14 2.64628L13.3198 2.19514ZM15 5.71646C15 5.10597 14.5523 4.61107 14 4.61107C13.4477 4.61107 13 5.10597 13 5.71646V19.7181C13 20.3286 13.4477 20.8235 14 20.8235C14.5523 20.8235 15 20.3286 15 19.7181V5.71646Z" fill="#A4A4A4"/>
<path d="M1.63312 24.2019C4.33159 22.4619 7.6684 22.4619 10.3669 24.2019L11.8166 25.1367C13.1658 26.0067 14.8342 26.0067 16.1834 25.1367L17.6331 24.2019C20.3316 22.4619 23.6684 22.4619 26.3669 24.2019L26.5039 24.2903C26.9809 24.5979 27.1421 25.2747 26.8638 25.8021C26.5855 26.3294 25.9732 26.5075 25.4961 26.1999L25.3591 26.1116C23.2834 24.7731 20.7166 24.7731 18.6409 26.1116L17.1912 27.0463C15.2192 28.3179 12.7808 28.3179 10.8088 27.0463L9.35914 26.1116C7.28339 24.7731 4.71661 24.7731 2.64086 26.1116L2.50387 26.1999C2.02682 26.5075 1.4145 26.3294 1.13622 25.8021C0.857941 25.2747 1.01908 24.5979 1.49613 24.2903L1.63312 24.2019Z" fill="white"/>
</svg>
