<svg width="28" height="28" viewBox="0 0 28 28" fill="none" xmlns="http://www.w3.org/2000/svg">
<path d="M13.1251 3.20307C13.1251 3.06704 13.0085 2.95968 12.8732 2.97335C7.28133 3.53801 2.91675 8.25935 2.91675 14.0001C2.91675 20.1213 7.87893 25.0834 14.0001 25.0834C17.0762 25.0834 19.8599 23.8297 21.8674 21.8069C21.9633 21.7102 21.9527 21.5524 21.8468 21.4668L13.4501 14.6806C13.2445 14.5145 13.1251 14.2644 13.1251 14.0001V3.20307Z" fill="#A4A4A4"/>
<path d="M22.9478 20.1065C23.0536 20.192 23.21 20.1694 23.2844 20.0555C24.2283 18.611 24.8445 16.9325 25.0269 15.1264C25.0405 14.9911 24.9331 14.8751 24.7971 14.8751H17.1347C16.9147 14.8751 16.817 15.1516 16.988 15.2899L22.9478 20.1065Z" fill="#A4A4A4"/>
<path d="M24.7971 13.1251C24.9331 13.1251 25.0405 13.0086 25.0268 12.8733C24.4996 7.6519 20.3483 3.50056 15.1269 2.97334C14.9916 2.95968 14.8751 3.06704 14.8751 3.20307V12.7751C14.8751 12.9684 15.0318 13.1251 15.2251 13.1251H24.7971Z" fill="#A4A4A4"/>
</svg>
