<svg width="44" height="44" viewBox="0 0 44 44" fill="none" xmlns="http://www.w3.org/2000/svg">
<rect x="1" y="1" width="42" height="42" rx="9" stroke="#2B6F95" stroke-width="2"/>
<path fill-rule="evenodd" clip-rule="evenodd" d="M15 26.25C15.4142 26.25 15.75 26.5858 15.75 27V29C15.75 29.1381 15.8619 29.25 16 29.25H28C28.1381 29.25 28.25 29.1381 28.25 29V27C28.25 26.5858 28.5858 26.25 29 26.25C29.4142 26.25 29.75 26.5858 29.75 27V29C29.75 29.9665 28.9665 30.75 28 30.75H16C15.0335 30.75 14.25 29.9665 14.25 29V27C14.25 26.5858 14.5858 26.25 15 26.25Z" fill="#2B6F95"/>
<path d="M20.7379 13.75C20.2236 13.75 19.7945 14.1431 19.7495 14.6555C19.5959 16.4083 19.5688 18.1696 19.6684 19.9258C19.4214 19.9395 19.1745 19.9553 18.9277 19.9733L17.4382 20.0819C16.8639 20.1237 16.5429 20.7641 16.8529 21.2493C17.915 22.9114 19.2834 24.3563 20.8854 25.5071L21.4821 25.9358C21.7916 26.1581 22.2085 26.1581 22.518 25.9358L23.1147 25.5071C24.7167 24.3563 26.0851 22.9114 27.1472 21.2493C27.4572 20.7641 27.1362 20.1237 26.5619 20.0819L25.0724 19.9733C24.8256 19.9553 24.5787 19.9395 24.3317 19.9258C24.4313 18.1696 24.4042 16.4083 24.2506 14.6555C24.2056 14.1431 23.7765 13.75 23.2622 13.75H20.7379Z" fill="#2B6F95"/>
</svg>
