<svg width="22" height="22" viewBox="0 0 22 22" fill="none" xmlns="http://www.w3.org/2000/svg">
<path fill-rule="evenodd" clip-rule="evenodd" d="M21.2428 3.86706C21.451 4.18244 21.4163 4.61102 21.1387 4.88865L11.1803 14.8471C11.0782 14.9492 10.9508 15.0222 10.8111 15.0587L6.66362 16.142C6.52835 16.1773 6.38891 16.1766 6.2579 16.1433C6.11862 16.1078 5.98887 16.0355 5.88377 15.9304C5.67981 15.7264 5.59927 15.4296 5.67217 15.1505L6.7555 11.0031C6.78743 10.8809 6.84733 10.7602 6.93019 10.6655L16.9255 0.675476C17.013 0.587982 17.1184 0.522499 17.2331 0.482601C17.3181 0.453018 17.4083 0.4375 17.5 0.4375C17.7155 0.4375 17.9222 0.523102 18.0746 0.675476L21.1387 3.73961C21.1784 3.77927 21.2131 3.82201 21.2428 3.86706ZM19.4151 4.31413L17.5 2.39905L8.27203 11.6271L7.59496 14.2192L10.1871 13.5421L19.4151 4.31413Z" fill="#75858D"/>
<path d="M19.2782 16.5903C19.5744 14.0579 19.6686 11.5078 19.5609 8.96419C19.5557 8.8424 19.6015 8.7239 19.6877 8.6377L20.753 7.57243C20.884 7.44146 21.1078 7.5246 21.12 7.70942C21.3204 10.7315 21.2444 13.7674 20.8922 16.7791C20.6359 18.9702 18.8762 20.6873 16.6965 20.9309C12.941 21.3506 9.05908 21.3506 5.30362 20.9309C3.12389 20.6873 1.3642 18.9702 1.10793 16.7791C0.658847 12.9395 0.658847 9.06054 1.10793 5.22088C1.3642 3.02981 3.12389 1.31271 5.30362 1.0691C8.15251 0.75069 11.0742 0.673828 13.9582 0.838508C14.1441 0.849121 14.2289 1.07404 14.0972 1.20568L13.0219 2.28095C12.9367 2.36621 12.8198 2.41199 12.6993 2.40793C10.2873 2.32658 7.85897 2.41862 5.48411 2.68404C4.04316 2.84509 2.88889 3.98217 2.72193 5.40965C2.28751 9.12389 2.28751 12.8761 2.72193 16.5903C2.88889 18.0178 4.04316 19.1549 5.48411 19.3159C9.11961 19.7223 12.8805 19.7223 16.516 19.3159C17.9569 19.1549 19.1112 18.0178 19.2782 16.5903Z" fill="#75858D"/>
</svg>
