<svg width="22" height="20" viewBox="0 0 22 20" fill="none" xmlns="http://www.w3.org/2000/svg">
<path fill-rule="evenodd" clip-rule="evenodd" d="M20.2412 1.90778C20.5585 1.59048 20.5585 1.07603 20.2412 0.758728C19.9239 0.441427 19.4094 0.441427 19.0921 0.758728L1.75881 18.0921C1.44151 18.4094 1.44151 18.9238 1.75881 19.2411C2.07611 19.5584 2.59056 19.5584 2.90786 19.2411L5.99199 16.157C7.47216 16.8537 9.17695 17.3124 11 17.3124C13.9077 17.3124 16.5145 16.1456 18.389 14.707C19.328 13.9863 20.1035 13.1823 20.6513 12.3928C21.184 11.6252 21.5625 10.7828 21.5625 9.99992C21.5625 9.21699 21.184 8.37461 20.6513 7.60699C20.1035 6.81757 19.328 6.01356 18.389 5.29287C18.105 5.07492 17.8042 4.86321 17.4881 4.66085L20.2412 1.90778ZM16.3078 5.84114L14.3894 7.75954C14.8148 8.40177 15.0625 9.17192 15.0625 9.99992C15.0625 12.2436 13.2437 14.0624 11 14.0624C10.172 14.0624 9.40185 13.8147 8.75962 13.3893L7.22484 14.9241C8.37917 15.3944 9.65896 15.6874 11 15.6874C13.4771 15.6874 15.7452 14.6876 17.3996 13.4179C18.225 12.7844 18.8774 12.0988 19.3163 11.4664C19.7703 10.8121 19.9375 10.3003 19.9375 9.99992C19.9375 9.69951 19.7703 9.18773 19.3163 8.53347C18.8774 7.90102 18.225 7.21545 17.3996 6.58197C17.0603 6.32158 16.6952 6.07253 16.3078 5.84114ZM9.9491 12.1999C10.2673 12.3521 10.6237 12.4374 11 12.4374C12.3462 12.4374 13.4375 11.3461 13.4375 9.99992C13.4375 9.62361 13.3522 9.26722 13.1999 8.94902L9.9491 12.1999Z" fill="#75858D"/>
<path d="M11 2.68742C12.1304 2.68742 13.2153 2.86377 14.2295 3.16389C14.4077 3.21665 14.4609 3.44003 14.3294 3.5715L13.404 4.49693C13.3421 4.55878 13.2525 4.58358 13.1672 4.56387C12.4711 4.40285 11.745 4.31242 11 4.31242C8.52291 4.31242 6.25477 5.31225 4.60039 6.58197C3.77501 7.21545 3.12262 7.90102 2.68371 8.53347C2.22967 9.18773 2.0625 9.69951 2.0625 9.99992C2.0625 10.3003 2.22967 10.8121 2.68371 11.4664C3.07043 12.0236 3.62289 12.6221 4.31339 13.1899C4.42945 13.2853 4.44044 13.4604 4.33419 13.5667L3.5363 14.3646C3.44599 14.4549 3.30191 14.4628 3.20393 14.3809C2.44683 13.7479 1.81523 13.0651 1.3487 12.3928C0.815985 11.6252 0.4375 10.7828 0.4375 9.99992C0.4375 9.21699 0.815985 8.37461 1.3487 7.60699C1.89654 6.81757 2.67201 6.01356 3.61102 5.29287C5.48546 3.85425 8.09232 2.68742 11 2.68742Z" fill="#75858D"/>
<path d="M11 5.93742C11.1413 5.93742 11.2809 5.94463 11.4185 5.95872C11.6152 5.97885 11.6864 6.21451 11.5466 6.35431L10.2063 7.69455C9.49858 7.93815 8.93824 8.4985 8.69463 9.20625L7.35439 10.5465C7.21459 10.6863 6.97893 10.6151 6.9588 10.4185C6.94472 10.2809 6.9375 10.1412 6.9375 9.99992C6.9375 7.75626 8.75634 5.93742 11 5.93742Z" fill="#75858D"/>
</svg>
