<svg width="20" height="23" viewBox="0 0 20 23" fill="none" xmlns="http://www.w3.org/2000/svg">
<path d="M7.37492 8.50008C7.37492 7.05033 8.55017 5.87508 9.99992 5.87508C11.4497 5.87508 12.6249 7.05033 12.6249 8.50008C12.6249 9.94983 11.4497 11.1251 9.99992 11.1251C8.55017 11.1251 7.37492 9.94983 7.37492 8.50008Z" fill="#A4A4A4"/>
<path fill-rule="evenodd" clip-rule="evenodd" d="M9.81095 0.916748C6.07486 0.916748 2.96333 3.78235 2.65641 7.50582C2.49142 9.50749 3.10972 11.4951 4.38109 13.0499L8.57502 18.179C9.31147 19.0796 10.6884 19.0797 11.4248 18.179L15.6188 13.0499C16.8901 11.4951 17.5084 9.50749 17.3434 7.50582C17.0365 3.78235 13.925 0.916748 10.1889 0.916748H9.81095ZM9.99992 4.12508C7.58367 4.12508 5.62492 6.08384 5.62492 8.50008C5.62492 10.9163 7.58367 12.8751 9.99992 12.8751C12.4162 12.8751 14.3749 10.9163 14.3749 8.50008C14.3749 6.08384 12.4162 4.12508 9.99992 4.12508Z" fill="#A4A4A4"/>
<path d="M4.5579 15.8841C4.99013 16.1002 5.16533 16.6258 4.94921 17.0581L3.24903 20.4584H16.7508L15.0506 17.0581C14.8345 16.6258 15.0097 16.1002 15.4419 15.8841C15.8742 15.668 16.3998 15.8432 16.6159 16.2754L18.9492 20.9421C19.0848 21.2133 19.0703 21.5355 18.9109 21.7934C18.7515 22.0514 18.4698 22.2084 18.1666 22.2084H1.83325C1.53 22.2084 1.24836 22.0514 1.08893 21.7934C0.929503 21.5355 0.915009 21.2133 1.05063 20.9421L3.38396 16.2754C3.60008 15.8432 4.12567 15.668 4.5579 15.8841Z" fill="#A4A4A4"/>
</svg>
