<svg width="28" height="28" viewBox="0 0 28 28" fill="none" xmlns="http://www.w3.org/2000/svg">
<path d="M13.1249 22.1666C13.1249 21.6833 13.5167 21.2916 13.9999 21.2916H20.9999C21.161 21.2916 21.2916 21.161 21.2916 20.9999L21.2916 6.99992C21.2916 6.83884 21.161 6.70825 20.9999 6.70825L13.9999 6.70825C13.5167 6.70825 13.1249 6.3165 13.1249 5.83325C13.1249 5.35 13.5167 4.95825 13.9999 4.95825H20.9999C22.1275 4.95825 23.0416 5.87234 23.0416 6.99992V20.9999C23.0416 22.1275 22.1275 23.0416 20.9999 23.0416H13.9999C13.5167 23.0416 13.1249 22.6498 13.1249 22.1666Z" fill="#A4A4A4"/>
<path d="M18.2135 15.301C18.2135 15.9453 17.6911 16.4677 17.0468 16.4677H11.3815C11.3547 16.8823 11.3212 17.2967 11.281 17.7105L11.2464 18.0666C11.1901 18.6455 10.5754 18.9922 10.0508 18.7409C7.91823 17.7188 5.98765 16.3203 4.35191 14.6124L4.31696 14.5759C4.00535 14.2506 4.00535 13.7375 4.31696 13.4121L4.35192 13.3756C5.98765 11.6678 7.91823 10.2692 10.0508 9.24721C10.5754 8.99581 11.1901 9.34254 11.2464 9.92149L11.281 10.2776C11.3212 10.6914 11.3547 11.1057 11.3815 11.5204L17.0468 11.5204C17.6911 11.5204 18.2135 12.0427 18.2135 12.6871V15.301Z" fill="#A4A4A4"/>
</svg>
