<svg width="18" height="23" viewBox="0 0 18 23" fill="none" xmlns="http://www.w3.org/2000/svg">
<path d="M6.83329 0.4375C6.38456 0.4375 6.02079 0.801269 6.02079 1.25V2.0625H1.41663C0.967895 2.0625 0.604126 2.42627 0.604126 2.875C0.604126 3.32373 0.967895 3.6875 1.41663 3.6875H16.5833C17.032 3.6875 17.3958 3.32373 17.3958 2.875C17.3958 2.42627 17.032 2.0625 16.5833 2.0625H11.9791V1.25C11.9791 0.801269 11.6154 0.4375 11.1666 0.4375H6.83329Z" fill="#C1272C"/>
<path d="M6.83329 9.53749C7.28202 9.53749 7.64579 9.90126 7.64579 10.35L7.64579 17.9333C7.64579 18.3821 7.28202 18.7458 6.83329 18.7458C6.38456 18.7458 6.02079 18.3821 6.02079 17.9333L6.02079 10.35C6.02079 9.90126 6.38456 9.53749 6.83329 9.53749Z" fill="#C1272C"/>
<path d="M11.9791 10.35C11.9791 9.90126 11.6154 9.53749 11.1666 9.53749C10.7179 9.53749 10.3541 9.90126 10.3541 10.35V17.9333C10.3541 18.3821 10.7179 18.7458 11.1666 18.7458C11.6154 18.7458 11.9791 18.3821 11.9791 17.9333V10.35Z" fill="#C1272C"/>
<path fill-rule="evenodd" clip-rule="evenodd" d="M2.49067 6.57694C2.53639 6.16546 2.88419 5.85417 3.2982 5.85417H14.7017C15.1157 5.85417 15.4635 6.16546 15.5092 6.57694L15.7261 8.5284C16.1191 12.0658 16.1191 15.6359 15.7261 19.1734L15.7047 19.3655C15.5487 20.7696 14.4604 21.8893 13.0613 22.0852C10.3669 22.4624 7.63304 22.4624 4.93863 22.0852C3.53946 21.8893 2.45121 20.7696 2.29519 19.3655L2.27384 19.1734C1.88079 15.6359 1.88079 12.0658 2.27384 8.5284L2.49067 6.57694ZM4.02542 7.47917L3.8889 8.70785C3.50911 12.126 3.50911 15.5757 3.8889 18.9939L3.91025 19.186C3.98424 19.852 4.50036 20.383 5.16393 20.4759C7.70887 20.8322 10.291 20.8322 12.836 20.4759C13.4995 20.383 14.0157 19.852 14.0897 19.186L14.111 18.9939C14.4908 15.5757 14.4908 12.126 14.111 8.70785L13.9745 7.47917H4.02542Z" fill="#C1272C"/>
</svg>
