<svg width="26" height="26" viewBox="0 0 26 26" fill="none" xmlns="http://www.w3.org/2000/svg">
<path d="M9.20823 12.9999C9.20823 10.9058 10.9058 9.20824 12.9999 9.20824C15.094 9.20824 16.7916 10.9058 16.7916 12.9999C16.7916 15.094 15.094 16.7916 12.9999 16.7916C10.9058 16.7916 9.20823 15.094 9.20823 12.9999Z" fill="#A4A4A4"/>
<path fill-rule="evenodd" clip-rule="evenodd" d="M12.3707 1.14484C12.7147 0.788959 13.2851 0.788959 13.6291 1.14484L16.6301 4.24991H20.8749C21.3582 4.24991 21.7499 4.64166 21.7499 5.12491V9.3697L24.855 12.3707C25.2109 12.7147 25.2109 13.2851 24.855 13.6291L21.7499 16.6301V20.8749C21.7499 21.3582 21.3582 21.7499 20.8749 21.7499H16.6301L13.6291 24.855C13.2851 25.2109 12.7147 25.2109 12.3707 24.855L9.36969 21.7499H5.12491C4.64166 21.7499 4.24991 21.3582 4.24991 20.8749V16.6301L1.14484 13.6291C0.78896 13.2851 0.788959 12.7147 1.14484 12.3707L4.24991 9.36969V5.12491C4.24991 4.64166 4.64166 4.24991 5.12491 4.24991H9.36969L12.3707 1.14484ZM12.9999 7.45824C9.93932 7.45824 7.45823 9.93933 7.45823 12.9999C7.45823 16.0605 9.93932 18.5416 12.9999 18.5416C16.0605 18.5416 18.5416 16.0605 18.5416 12.9999C18.5416 9.93933 16.0605 7.45824 12.9999 7.45824Z" fill="#A4A4A4"/>
</svg>
