<?xml version="1.0" encoding="utf-8"?>
<!-- Svg Vector Icons : http://www.onlinewebfonts.com/icon -->
<!DOCTYPE svg PUBLIC "-//W3C//DTD SVG 1.1//EN" "http://www.w3.org/Graphics/SVG/1.1/DTD/svg11.dtd">
<svg version="1.1" xmlns="http://www.w3.org/2000/svg" xmlns:xlink="http://www.w3.org/1999/xlink" x="0px" y="0px" viewBox="0 0 1000 1000" enable-background="new 0 0 1000 1000" xml:space="preserve">
<metadata> Svg Vector Icons : http://www.onlinewebfonts.com/icon </metadata>
<g><path d="M990,152.5c0,33.1-26.8,59.9-59.9,59.9H72.2c-33.1,0-59.9-26.8-59.9-59.9l0,0c0-33.1,26.8-59.9,59.9-59.9h857.9C963.2,92.6,990,119.4,990,152.5L990,152.5z"/><path d="M990,499.8c0,33.1-26.8,59.9-59.9,59.9H72.2c-33.1,0-59.9-26.8-59.9-59.9l0,0c0-33.1,26.8-59.9,59.9-59.9h857.9C963.2,439.9,990,466.7,990,499.8L990,499.8z"/><path d="M987.8,847.5c0,33.1-26.8,59.9-59.9,59.9H69.9c-33.1,0-59.9-26.8-59.9-59.9l0,0c0-33.1,26.8-59.9,59.9-59.9h857.9C960.9,787.6,987.8,814.4,987.8,847.5L987.8,847.5z"/></g>
</svg>