<svg width="44" height="44" viewBox="0 0 44 44" fill="none" xmlns="http://www.w3.org/2000/svg">
<rect width="44" height="44" rx="10" fill="#2B6F95"/>
<path fill-rule="evenodd" clip-rule="evenodd" d="M15 26.2499C15.4142 26.2499 15.75 26.5857 15.75 26.9999V28.9999C15.75 29.138 15.8619 29.2499 16 29.2499H28C28.1381 29.2499 28.25 29.138 28.25 28.9999V26.9999C28.25 26.5857 28.5858 26.2499 29 26.2499C29.4142 26.2499 29.75 26.5857 29.75 26.9999V28.9999C29.75 29.9664 28.9665 30.7499 28 30.7499H16C15.0335 30.7499 14.25 29.9664 14.25 28.9999V26.9999C14.25 26.5857 14.5858 26.2499 15 26.2499Z" fill="white"/>
<path fill-rule="evenodd" clip-rule="evenodd" d="M20.7379 26.1272C20.2235 26.1272 19.7944 25.734 19.7495 25.2216C19.5958 23.4689 19.5687 21.7076 19.6683 19.9513C19.4213 19.9377 19.1744 19.9219 18.9277 19.9039L17.4381 19.7953C16.8638 19.7534 16.5428 19.1131 16.8528 18.6278C17.9149 16.9658 19.2833 15.5208 20.8853 14.3701L21.4821 13.9414C21.7916 13.7191 22.2084 13.7191 22.5179 13.9414L23.1147 14.3701C24.7166 15.5208 26.0851 16.9658 27.1472 18.6278C27.4572 19.1131 27.1362 19.7534 26.5619 19.7953L25.0723 19.9039C24.8256 19.9219 24.5787 19.9377 24.3317 19.9513C24.4313 21.7076 24.4042 23.4689 24.2505 25.2216C24.2056 25.734 23.7765 26.1272 23.2621 26.1272H20.7379Z" fill="white"/>
</svg>
