<svg width="43" height="43" viewBox="0 0 43 43" fill="none" xmlns="http://www.w3.org/2000/svg">
<path d="M21.5 18.5312C22.4838 18.5312 23.2812 19.3287 23.2812 20.3125V32.1875C23.2812 33.1713 22.4838 33.9688 21.5 33.9688C20.5162 33.9688 19.7188 33.1713 19.7188 32.1875V20.3125C19.7188 19.3287 20.5162 18.5312 21.5 18.5312Z" fill="#FAC557"/>
<path d="M21.5 14.375C22.8117 14.375 23.875 13.3117 23.875 12C23.875 10.6883 22.8117 9.625 21.5 9.625C20.1883 9.625 19.125 10.6883 19.125 12C19.125 13.3117 20.1883 14.375 21.5 14.375Z" fill="#FAC557"/>
<path fill-rule="evenodd" clip-rule="evenodd" d="M0.71875 21.5C0.71875 10.0228 10.0228 0.71875 21.5 0.71875C32.9772 0.71875 42.2812 10.0228 42.2812 21.5C42.2812 32.9772 32.9772 42.2812 21.5 42.2812C10.0228 42.2812 0.71875 32.9772 0.71875 21.5ZM21.5 4.28125C11.9903 4.28125 4.28125 11.9903 4.28125 21.5C4.28125 31.0097 11.9903 38.7188 21.5 38.7188C31.0097 38.7188 38.7188 31.0097 38.7188 21.5C38.7188 11.9903 31.0097 4.28125 21.5 4.28125Z" fill="#FAC557"/>
</svg>
